<svg xmlns="http://www.w3.org/2000/svg" xmlns:xlink="http://www.w3.org/1999/xlink" id="Ebene_1" x="0px" y="0px" viewBox="0 0 330.4 73.5" style="enable-background:new 0 0 330.4 73.5;" xml:space="preserve"><style type="text/css">	.st0{fill:#FFFFFF;}	.st1{fill:#192542;}	.st2{fill:#1A2542;}	.st3{fill:url(#SVGID_1_);}	.st4{fill:url(#SVGID_00000122693292632830120560000009581831965103295132_);}	.st5{fill:url(#SVGID_00000075844783687868494030000005371344976429166255_);}	.st6{fill:url(#SVGID_00000144307411187431896240000007566042618578327187_);}	.st7{fill:url(#SVGID_00000176040429053614702970000015740941494974026383_);}	.st8{fill:url(#SVGID_00000070800918028800484440000011812588510986738350_);}</style><g>	<g>		<g>			<path class="st2" d="M134.5,54.4V53h13.2v1.4h-6.2L142,54v16.3h-1.6V54l0.4,0.4H134.5z"></path>			<path class="st2" d="M148,57h1.6v8.3c0,1.2,0.3,2.2,0.9,2.8c0.6,0.6,1.5,1,2.6,1c0.9,0,1.7-0.3,2.4-0.8c0.7-0.5,1.2-1.2,1.5-2    c0.3-0.8,0.5-1.8,0.5-2.8h0.8c0,1.4-0.2,2.7-0.7,3.7c-0.4,1.1-1.1,1.9-1.9,2.4s-1.8,0.9-2.9,0.9c-1,0-1.9-0.2-2.7-0.6    c-0.7-0.4-1.3-1-1.7-1.7c-0.4-0.8-0.6-1.7-0.6-2.8V57z M151.9,54.4c-0.3,0-0.6-0.1-0.9-0.3c-0.2-0.2-0.3-0.5-0.3-0.8    c0-0.3,0.1-0.6,0.3-0.8c0.2-0.2,0.5-0.3,0.9-0.3c0.3,0,0.6,0.1,0.9,0.3c0.2,0.2,0.4,0.5,0.4,0.8c0,0.3-0.1,0.6-0.4,0.8    C152.5,54.3,152.2,54.4,151.9,54.4z M156.2,54.4c-0.3,0-0.6-0.1-0.9-0.3c-0.2-0.2-0.4-0.5-0.4-0.8c0-0.3,0.1-0.6,0.4-0.8    c0.2-0.2,0.5-0.4,0.9-0.4c0.3,0,0.6,0.1,0.9,0.4c0.2,0.2,0.4,0.5,0.4,0.8c0,0.3-0.1,0.6-0.4,0.8    C156.9,54.3,156.6,54.4,156.2,54.4z M157.5,57h1.6v13.3h-1.6V57z"></path>			<path class="st2" d="M163.7,70.3V57h1.6v13.3H163.7z M164.8,64.2c0-1.7,0.1-3,0.4-4.1c0.3-1.1,0.7-1.9,1.3-2.5    c0.6-0.5,1.4-0.8,2.3-0.8c0.3,0,0.6,0,0.9,0.1c0.3,0,0.6,0.1,0.8,0.2l-0.2,1.6c-0.3-0.1-0.6-0.2-0.9-0.3    c-0.3-0.1-0.6-0.1-0.9-0.1c-0.8,0-1.5,0.3-2,0.8c-0.5,0.5-0.8,1.2-1,2.1c-0.2,0.9-0.3,1.9-0.3,3.1H164.8z"></path>			<path class="st2" d="M173,70.3v-19h1.6v19H173z M174.3,63l7.3-6h2.3l-9.7,7.8V63z M182.3,70.3l-6.5-8.3l1.7-0.2l6.8,8.6H182.3z"></path>			<path class="st2" d="M191.2,70.6c-1.2,0-2.2-0.3-3.1-0.9c-0.9-0.6-1.6-1.4-2.1-2.4c-0.5-1-0.8-2.2-0.8-3.6c0-1.5,0.3-2.7,0.7-3.7    c0.5-1,1.2-1.8,2.1-2.4c0.9-0.6,1.9-0.8,3.1-0.8c1,0,1.8,0.2,2.5,0.6c0.7,0.4,1.2,0.9,1.7,1.6c0.4,0.7,0.7,1.4,0.9,2.3    c0.2,0.9,0.2,1.7,0.2,2.7h-9.8v-1.1h8.8l-0.6,0.4c0-0.6,0-1.2-0.1-1.8s-0.3-1.2-0.5-1.7c-0.3-0.5-0.6-0.9-1.1-1.2    c-0.5-0.3-1.1-0.5-1.8-0.5c-1,0-1.7,0.2-2.4,0.7c-0.6,0.5-1.1,1.1-1.4,1.9c-0.3,0.8-0.5,1.6-0.5,2.5v0.7c0,1,0.2,1.9,0.5,2.7    c0.3,0.8,0.8,1.5,1.4,1.9c0.6,0.5,1.4,0.7,2.4,0.7c1,0,1.8-0.2,2.4-0.7c0.6-0.5,1-1.2,1.1-2.1h1.7c-0.1,0.9-0.5,1.6-0.9,2.3    c-0.5,0.6-1.1,1.1-1.8,1.4C192.9,70.4,192.1,70.6,191.2,70.6z"></path>			<path class="st2" d="M200.4,53.5c-0.3,0-0.6-0.1-0.8-0.3c-0.2-0.2-0.3-0.5-0.3-0.8c0-0.3,0.1-0.6,0.3-0.8    c0.2-0.2,0.5-0.3,0.8-0.3c0.4,0,0.6,0.1,0.9,0.3s0.3,0.4,0.3,0.8c0,0.3-0.1,0.6-0.3,0.8S200.8,53.5,200.4,53.5z M199.6,70.3V57    h1.6v13.3H199.6z"></path>		</g>		<g>			<path class="st2" d="M141.1,42.4c-1.2,0-2.2-0.2-3.2-0.6c-1-0.4-1.8-1-2.4-1.8c-0.6-0.8-0.9-1.9-1-3.1h3c0,0.6,0.2,1.2,0.5,1.6    c0.3,0.4,0.7,0.7,1.3,0.9c0.5,0.2,1.1,0.3,1.8,0.3c0.6,0,1.2-0.1,1.7-0.2c0.5-0.2,0.9-0.4,1.1-0.7c0.3-0.3,0.4-0.7,0.4-1.1    c0-0.6-0.2-1-0.5-1.3c-0.3-0.3-0.9-0.6-1.6-0.9l-3.3-1.3c-1.3-0.5-2.3-1.1-3-1.8c-0.7-0.7-1-1.6-1-2.8c0-1.4,0.5-2.5,1.6-3.3    c1.1-0.8,2.6-1.3,4.5-1.3c1.9,0,3.3,0.4,4.4,1.3c1,0.9,1.6,2.1,1.7,3.6h-3c-0.1-0.7-0.4-1.2-0.9-1.6c-0.5-0.4-1.2-0.6-2.2-0.6    c-0.9,0-1.5,0.2-2,0.5c-0.5,0.4-0.7,0.8-0.7,1.3c0,0.5,0.2,0.8,0.5,1.1c0.3,0.3,0.8,0.5,1.5,0.8l3.7,1.4c1.2,0.5,2.2,1.1,2.9,1.8    c0.7,0.7,1,1.6,1,2.7c0,1-0.3,1.9-0.8,2.6c-0.5,0.7-1.2,1.3-2.2,1.7C143.7,42.2,142.5,42.4,141.1,42.4z"></path>			<path class="st2" d="M155.4,42.4c-1.1,0-2-0.3-2.9-0.8c-0.9-0.5-1.6-1.3-2.2-2.3c-0.6-1-0.8-2.2-0.8-3.5c0-1.4,0.3-2.6,0.8-3.6    s1.3-1.7,2.2-2.2c0.9-0.5,1.9-0.8,2.9-0.8c0.8,0,1.5,0.1,2.2,0.4s1.2,0.6,1.6,1.1c0.4,0.4,0.8,0.9,1,1.5c0.2,0.5,0.4,1.1,0.5,1.6    l-3.1,0.1c-0.1-0.6-0.4-1-0.8-1.4c-0.4-0.4-0.9-0.5-1.5-0.5c-0.5,0-0.9,0.1-1.4,0.4c-0.4,0.3-0.8,0.7-1.1,1.3    c-0.3,0.6-0.4,1.3-0.4,2.2c0,0.9,0.1,1.6,0.4,2.1s0.6,1,1,1.3c0.4,0.3,0.9,0.4,1.4,0.4c0.8,0,1.3-0.2,1.7-0.6s0.5-0.9,0.5-1.5    h3.1c0,0.9-0.2,1.7-0.6,2.4c-0.4,0.7-1,1.3-1.8,1.7C157.5,42.2,156.6,42.4,155.4,42.4z"></path>			<path class="st2" d="M163.3,42.1V24.3h3v17.7H163.3z M171.9,42.1v-7.3c0-0.9-0.2-1.6-0.7-2.1c-0.4-0.5-1-0.7-1.8-0.7    c-0.6,0-1.2,0.2-1.6,0.5c-0.5,0.3-0.8,0.8-1.1,1.5c-0.3,0.7-0.4,1.5-0.4,2.5h-1c0-1.6,0.2-3,0.6-4.1c0.4-1.1,1-1.9,1.7-2.4    c0.7-0.5,1.6-0.8,2.6-0.8c1,0,1.9,0.2,2.6,0.7c0.7,0.5,1.2,1.1,1.6,1.9c0.3,0.8,0.5,1.8,0.5,2.9v7.3H171.9z"></path>			<path class="st2" d="M183.3,42.4c-1.1,0-2.2-0.2-3.1-0.7c-0.9-0.5-1.7-1.2-2.2-2.2c-0.5-1-0.8-2.2-0.8-3.7c0-1.5,0.3-2.7,0.8-3.7    c0.5-1,1.3-1.7,2.2-2.2c0.9-0.5,2-0.7,3.1-0.7c1.1,0,2.1,0.2,3.1,0.7c0.9,0.5,1.6,1.2,2.2,2.2c0.5,1,0.8,2.2,0.8,3.7    c0,1.5-0.3,2.7-0.8,3.7c-0.5,1-1.3,1.7-2.2,2.2C185.5,42.2,184.4,42.4,183.3,42.4z M180.8,27.3c-0.5,0-1-0.2-1.3-0.5    c-0.3-0.3-0.5-0.7-0.5-1.2c0-0.5,0.2-0.9,0.5-1.2c0.3-0.3,0.8-0.5,1.3-0.5c0.5,0,1,0.2,1.3,0.5c0.3,0.3,0.5,0.7,0.5,1.2    c0,0.5-0.2,0.9-0.5,1.2C181.8,27.2,181.3,27.3,180.8,27.3z M183.2,39.8c0.6,0,1.1-0.1,1.6-0.4c0.5-0.3,0.8-0.7,1.1-1.3    c0.3-0.6,0.4-1.3,0.4-2.2c0-1.3-0.3-2.3-0.8-3c-0.5-0.7-1.2-1-2.1-1c-0.6,0-1.2,0.1-1.6,0.4c-0.5,0.3-0.8,0.7-1.1,1.3    c-0.3,0.6-0.4,1.3-0.4,2.2c0,1.3,0.3,2.3,0.8,3C181.6,39.4,182.3,39.8,183.2,39.8z M185.7,27.3c-0.5,0-0.9-0.2-1.3-0.5    c-0.4-0.3-0.5-0.7-0.5-1.2c0-0.5,0.2-0.9,0.5-1.2c0.4-0.3,0.8-0.5,1.3-0.5c0.5,0,1,0.2,1.3,0.5c0.3,0.3,0.5,0.7,0.5,1.2    c0,0.5-0.2,0.9-0.5,1.2C186.7,27.2,186.3,27.3,185.7,27.3z"></path>			<path class="st2" d="M191.9,42.1V29.5h2.7L195,32v10H191.9z M200.5,42.1v-7.3c0-0.9-0.2-1.6-0.7-2.1s-1-0.7-1.8-0.7    c-0.6,0-1.2,0.2-1.6,0.5c-0.5,0.3-0.8,0.8-1.1,1.5c-0.3,0.7-0.4,1.5-0.4,2.5h-1c0-1.6,0.2-3,0.6-4.1c0.4-1.1,1-1.9,1.7-2.4    c0.7-0.5,1.6-0.8,2.6-0.8c1,0,1.9,0.2,2.6,0.7c0.7,0.5,1.2,1.1,1.6,1.9c0.3,0.8,0.5,1.8,0.5,2.9v7.3H200.5z"></path>			<path class="st2" d="M207,42.1V24.3h3v17.7H207z M215.6,42.1v-7.3c0-0.9-0.2-1.6-0.7-2.1c-0.4-0.5-1-0.7-1.8-0.7    c-0.6,0-1.2,0.2-1.6,0.5c-0.5,0.3-0.8,0.8-1.1,1.5c-0.3,0.7-0.4,1.5-0.4,2.5h-1c0-1.6,0.2-3,0.6-4.1c0.4-1.1,1-1.9,1.7-2.4    c0.7-0.5,1.6-0.8,2.6-0.8c1,0,1.9,0.2,2.6,0.7c0.7,0.5,1.2,1.1,1.6,1.9c0.3,0.8,0.5,1.8,0.5,2.9v7.3H215.6z"></path>			<path class="st2" d="M226.7,42.4c-1.1,0-2-0.3-2.9-0.8c-0.9-0.6-1.6-1.3-2.1-2.3c-0.5-1-0.8-2.2-0.8-3.5c0-1.4,0.3-2.6,0.8-3.5    c0.5-1,1.2-1.7,2.1-2.3c0.9-0.5,1.9-0.8,2.9-0.8c1,0,1.9,0.2,2.6,0.6c0.7,0.4,1.3,0.9,1.8,1.6c0.4,0.7,0.7,1.5,0.9,2.3    c0.2,0.9,0.2,1.7,0,2.7h-8.7v-1.7h6.5l-0.6,0.4c0-0.4,0-0.8-0.1-1.2c-0.1-0.4-0.2-0.8-0.4-1.1s-0.4-0.6-0.8-0.8    c-0.3-0.2-0.8-0.3-1.3-0.3c-0.6,0-1.1,0.2-1.6,0.5c-0.4,0.3-0.8,0.7-1,1.3c-0.2,0.5-0.3,1.1-0.3,1.8v1.2c0,0.7,0.1,1.3,0.3,1.9    c0.2,0.5,0.5,1,0.9,1.3c0.4,0.3,0.9,0.5,1.6,0.5c0.6,0,1.1-0.1,1.5-0.4c0.4-0.3,0.7-0.7,0.8-1.2h3.1c-0.1,0.8-0.4,1.5-0.9,2.1    c-0.5,0.6-1.1,1.1-1.9,1.4C228.5,42.2,227.7,42.4,226.7,42.4z"></path>			<path class="st2" d="M236.5,27.2c-0.6,0-1.1-0.2-1.4-0.5c-0.3-0.3-0.5-0.7-0.5-1.3c0-0.5,0.2-1,0.5-1.3c0.3-0.3,0.8-0.5,1.4-0.5    c0.6,0,1,0.2,1.4,0.5c0.3,0.3,0.5,0.8,0.5,1.3c0,0.6-0.2,1-0.5,1.3C237.5,27.1,237.1,27.2,236.5,27.2z M234.9,42.1V29.5h3v12.6    H234.9z"></path>			<path class="st2" d="M240.5,31.5v-2h8.2v2H240.5z M246.4,42.4c-0.7,0-1.4-0.1-2-0.4c-0.6-0.3-1.1-0.7-1.5-1.3    c-0.4-0.6-0.5-1.3-0.5-2.2V26.2h3v12.3c0,1,0.5,1.5,1.5,1.5c0.3,0,0.6,0,0.9-0.1c0.3-0.1,0.6-0.2,1-0.3l0.4,2.1    c-0.5,0.2-1,0.3-1.4,0.5C247.3,42.3,246.9,42.4,246.4,42.4z"></path>			<path class="st2" d="M255.9,42.4c-1.2,0-2.2-0.2-3.1-0.5c-0.9-0.3-1.5-0.8-2-1.4c-0.5-0.6-0.7-1.4-0.7-2.3h2.8    c0,0.6,0.3,1.1,0.7,1.4c0.5,0.3,1.1,0.4,1.9,0.4c0.4,0,0.8-0.1,1.2-0.2c0.3-0.1,0.6-0.3,0.8-0.5c0.2-0.2,0.3-0.5,0.3-0.7    c0-0.4-0.1-0.6-0.4-0.8c-0.3-0.2-0.7-0.4-1.2-0.6l-2.7-1c-1-0.4-1.7-0.8-2.3-1.4c-0.5-0.6-0.8-1.3-0.8-2.1c0-1.1,0.5-1.9,1.4-2.6    c1-0.6,2.2-1,3.9-1c1.6,0,2.8,0.4,3.7,1.1s1.3,1.6,1.3,2.7h-2.9c0-0.4-0.2-0.7-0.6-1c-0.4-0.2-0.9-0.4-1.6-0.4    c-0.6,0-1.2,0.1-1.5,0.4c-0.4,0.3-0.5,0.6-0.5,0.9c0,0.6,0.5,1,1.5,1.3l3,1.1c1,0.3,1.7,0.7,2.2,1.3c0.5,0.5,0.8,1.2,0.8,2    c0,0.7-0.2,1.3-0.7,1.9c-0.4,0.6-1.1,1.1-1.9,1.4C257.9,42.2,257,42.4,255.9,42.4z"></path>			<path class="st2" d="M263.9,42.1V29.5h3v12.6H263.9z M266.2,36.6c0-1.6,0.2-3,0.6-4.1c0.4-1.1,0.9-1.9,1.5-2.4    c0.6-0.5,1.3-0.8,2.1-0.8c0.2,0,0.4,0,0.6,0c0.2,0,0.4,0.1,0.5,0.1l-0.1,3c-0.2-0.1-0.5-0.1-0.7-0.1c-0.3,0-0.5-0.1-0.7-0.1    c-0.7,0-1.2,0.2-1.7,0.5c-0.5,0.3-0.8,0.8-1,1.4c-0.2,0.6-0.3,1.4-0.3,2.3H266.2z"></path>			<path class="st2" d="M278.6,42.4c-1.1,0-2-0.3-2.9-0.8c-0.9-0.6-1.6-1.3-2.1-2.3c-0.5-1-0.8-2.2-0.8-3.5c0-1.4,0.3-2.6,0.8-3.5    c0.5-1,1.2-1.7,2.1-2.3s1.9-0.8,2.9-0.8c1,0,1.9,0.2,2.6,0.6s1.3,0.9,1.8,1.6c0.4,0.7,0.7,1.5,0.9,2.3c0.2,0.9,0.2,1.7,0,2.7    h-8.7v-1.7h6.5l-0.6,0.4c0-0.4,0-0.8-0.1-1.2c-0.1-0.4-0.2-0.8-0.4-1.1c-0.2-0.3-0.4-0.6-0.8-0.8c-0.3-0.2-0.8-0.3-1.3-0.3    c-0.6,0-1.1,0.2-1.6,0.5c-0.4,0.3-0.8,0.7-1,1.3c-0.2,0.5-0.3,1.1-0.3,1.8v1.2c0,0.7,0.1,1.3,0.3,1.9c0.2,0.5,0.5,1,0.9,1.3    c0.4,0.3,0.9,0.5,1.6,0.5c0.6,0,1.1-0.1,1.5-0.4c0.4-0.3,0.7-0.7,0.8-1.2h3.1c-0.1,0.8-0.4,1.5-0.9,2.1c-0.5,0.6-1.1,1.1-1.9,1.4    C280.4,42.2,279.6,42.4,278.6,42.4z"></path>			<path class="st2" d="M287.9,27.2c-0.6,0-1.1-0.2-1.4-0.5c-0.3-0.3-0.5-0.7-0.5-1.3c0-0.5,0.2-1,0.5-1.3c0.3-0.3,0.8-0.5,1.4-0.5    c0.6,0,1,0.2,1.4,0.5c0.3,0.3,0.5,0.8,0.5,1.3c0,0.6-0.2,1-0.5,1.3C288.9,27.1,288.5,27.2,287.9,27.2z M286.4,42.1V29.5h3v12.6    H286.4z"></path>			<path class="st2" d="M298.2,42.4c-1.2,0-2.2-0.2-3.1-0.5c-0.9-0.3-1.5-0.8-2-1.4c-0.5-0.6-0.7-1.4-0.7-2.3h2.8    c0,0.6,0.3,1.1,0.7,1.4c0.5,0.3,1.1,0.4,1.9,0.4c0.4,0,0.8-0.1,1.2-0.2c0.3-0.1,0.6-0.3,0.8-0.5c0.2-0.2,0.3-0.5,0.3-0.7    c0-0.4-0.1-0.6-0.4-0.8c-0.3-0.2-0.7-0.4-1.2-0.6l-2.7-1c-1-0.4-1.7-0.8-2.3-1.4c-0.5-0.6-0.8-1.3-0.8-2.1c0-1.1,0.5-1.9,1.4-2.6    c1-0.6,2.2-1,3.9-1c1.6,0,2.8,0.4,3.7,1.1s1.3,1.6,1.3,2.7h-2.9c0-0.4-0.2-0.7-0.6-1s-0.9-0.4-1.6-0.4c-0.6,0-1.2,0.1-1.5,0.4    c-0.4,0.3-0.5,0.6-0.5,0.9c0,0.6,0.5,1,1.5,1.3l3,1.1c1,0.3,1.7,0.7,2.2,1.3c0.5,0.5,0.8,1.2,0.8,2c0,0.7-0.2,1.3-0.7,1.9    c-0.4,0.6-1.1,1.1-1.9,1.4C300.2,42.2,299.2,42.4,298.2,42.4z"></path>			<path class="st2" d="M310.8,42.4c-1.1,0-2-0.3-2.9-0.8c-0.9-0.6-1.6-1.3-2.1-2.3c-0.5-1-0.8-2.2-0.8-3.5c0-1.4,0.3-2.6,0.8-3.5    c0.5-1,1.2-1.7,2.1-2.3s1.9-0.8,2.9-0.8c1,0,1.9,0.2,2.6,0.6c0.7,0.4,1.3,0.9,1.8,1.6c0.4,0.7,0.7,1.5,0.9,2.3    c0.2,0.9,0.2,1.7,0,2.7h-8.7v-1.7h6.5l-0.6,0.4c0-0.4,0-0.8-0.1-1.2c-0.1-0.4-0.2-0.8-0.4-1.1c-0.2-0.3-0.4-0.6-0.8-0.8    c-0.3-0.2-0.8-0.3-1.3-0.3c-0.6,0-1.1,0.2-1.6,0.5c-0.4,0.3-0.8,0.7-1,1.3c-0.2,0.5-0.3,1.1-0.3,1.8v1.2c0,0.7,0.1,1.3,0.3,1.9    c0.2,0.5,0.5,1,0.9,1.3c0.4,0.3,0.9,0.5,1.6,0.5c0.6,0,1.1-0.1,1.5-0.4c0.4-0.3,0.7-0.7,0.8-1.2h3.1c-0.1,0.8-0.4,1.5-0.9,2.1    c-0.5,0.6-1.1,1.1-1.9,1.4C312.6,42.2,311.8,42.4,310.8,42.4z"></path>			<path class="st2" d="M318.8,42.1V29.5h2.7l0.4,2.5v10H318.8z M327.4,42.1v-7.3c0-0.9-0.2-1.6-0.7-2.1c-0.4-0.5-1-0.7-1.8-0.7    c-0.6,0-1.2,0.2-1.6,0.5c-0.5,0.3-0.8,0.8-1.1,1.5c-0.3,0.7-0.4,1.5-0.4,2.5h-1c0-1.6,0.2-3,0.6-4.1c0.4-1.1,1-1.9,1.7-2.4    c0.7-0.5,1.6-0.8,2.6-0.8c1,0,1.9,0.2,2.6,0.7c0.7,0.5,1.2,1.1,1.6,1.9c0.3,0.8,0.5,1.8,0.5,2.9v7.3H327.4z"></path>		</g>	</g>	<g>		<g>			<path class="st1" d="M78.2,11l8,1.2l-1.9,6.7l-3,0.8c-0.2,0-0.4,0.2-0.4,0.4l-0.4,1.2c-0.1,0.2,0.1,0.3,0.2,0.3l4.4,0.3    c0.1,0,0.2,0,0.2,0.1l3.7,2.3c0.1,0.1,0.3,0,0.4-0.1l0.4-1.2c0.1-0.2,0-0.4-0.1-0.6l-2-2.4l2.4-6.5l7.2,3.8    c0.1,0.1,0.3,0,0.4-0.1l0.5-1.4c0.2-0.5,0-1-0.4-1.4l-6.1-5l1.8-4.8c0.3-0.9,0.3-1.8,0-2.7l-0.3-0.9c-0.3-0.8-1.2-1.1-1.9-0.6    l-0.8,0.6c-0.7,0.5-1.3,1.3-1.6,2.2l-1.4,5l-7.9,0.4c-0.5,0-1,0.4-1.1,0.9L78,10.6C78,10.8,78.1,11,78.2,11z"></path>			<path class="st1" d="M84.7,23.1c-0.4-0.1-0.8,0.2-0.9,0.6l-0.5,2.7c0,0.1,0,0.3,0.2,0.4c0.2,0.1,0.4,0,0.5-0.1l1.2-2.4    c0-0.1,0.1-0.1,0.1-0.2C85.4,23.6,85.1,23.2,84.7,23.1z"></path>			<path class="st1" d="M81,23.4l-0.5,2.7c0,0.1,0,0.3,0.2,0.4c0.2,0.1,0.4,0,0.5-0.1l1.2-2.4c0-0.1,0.1-0.1,0.1-0.2    c0.1-0.4-0.2-0.8-0.6-0.9C81.5,22.7,81.1,23,81,23.4z"></path>			<path class="st1" d="M86.4,25.1l-0.5,2.7c0,0.1,0,0.3,0.2,0.4c0.2,0.1,0.4,0,0.5-0.2l1.2-2.4c0-0.1,0.1-0.1,0.1-0.2    c0.1-0.4-0.2-0.8-0.6-0.9C86.8,24.5,86.4,24.7,86.4,25.1z"></path>			<path class="st1" d="M101.5,46v7.2l9.9,0.1v0.4c0,1.6-0.4,3.2-1.3,4.5c-0.8,1.4-2,2.4-3.5,3.2c-1.5,0.8-3.2,1.2-5.1,1.2    c-1.9,0-3.6-0.6-5.2-1.8c-1.5-1.2-2.7-3-3.6-5.3c-0.9-2.3-1.3-5-1.3-8.1c0-3.1,0.4-5.9,1.3-8.1c0.9-2.3,2.1-4,3.6-5.2    c1.5-1.2,3.3-1.8,5.2-1.8c2,0,3.7,0.6,5.1,1.8c1.4,1.2,2.5,2.8,3.3,4.8l12.5-2.3c-1.4-5.2-3.8-9-7.2-11.4    c-3.4-2.4-7.7-3.6-13.1-3.6c-2.7,0-5.1,0.4-7.4,1.1c-4.4,11.4-10.2,20.4-16.1,27.5c0,0.2,0,0.4,0,0.7c-0.1-0.1-0.2-0.2-0.3-0.4    c0,0,0,0,0,0c-10.4,12.3-21.3,18.6-27,21.3c3,1.1,6.2,1.7,9.6,1.7c4.3,0,7.9-0.6,10.9-1.7s5.3-2.8,6.9-5c1.3-1.8,2-4,2.3-6.5    c0.1,0.2,0.2,0.4,0.3,0.7c1.9,3.9,4.5,7,7.8,9.2c3.3,2.2,7,3.3,11.2,3.3c2.9,0,5.4-0.8,7.3-2.4c1.8-1.5,3.1-3.6,4.1-6.2l1.1,7.4    h9.7V46H101.5z"></path>			<path class="st1" d="M53.5,59.9c-0.8-1-1.1-2.2-1.1-3.7H42.2c0.8-2.6,1.2-5.4,1.2-8.5c0-1.8-0.1-3.5-0.4-5.1    c0.4,0.6,0.8,1.1,1.2,1.6c2,2.1,4.7,3.9,8.3,5.4l10.8,4.7c0.4,0.2,0.8,0.3,1.2,0.5c2.9-3.2,5.1-6.3,6.9-9.4    c-0.4-0.2-0.9-0.4-1.4-0.6l-11.4-4.8c-1.5-0.6-2.5-1.2-3.3-1.8c-0.7-0.5-1.1-1.3-1.1-2.2c0-1,0.6-1.9,1.7-2.5    c1.1-0.7,2.6-1,4.5-1c2.6,0,4.4,0.6,5.6,1.7c1.1,1.1,1.9,2.5,2.2,4.1h6.6c1.3-3.5,1.9-6.7,2.2-9.2c-0.7-1.1-1.6-2.1-2.6-3    c-3.2-2.8-7.8-4.3-13.9-4.3c-5.9,0-10.6,1.3-14,3.9c-3.4,2.6-5.1,5.9-5.1,10.1c0,0.4,0,0.7,0,1.1c-0.4-0.8-0.8-1.6-1.2-2.4    c-2.2-3.7-5.2-6.6-9.1-8.6c-3.9-2-8.4-3-13.5-3H0v49.5h17.5c5.1,0,9.6-1,13.5-3c3.9-2,6.9-4.9,9.1-8.6c0.3-0.5,0.6-1.1,0.9-1.6    c0.5,2.7,1.4,5.1,2.8,7c0.7,0.9,1.4,1.7,2.2,2.5c3.9-2.1,7.4-4.3,10.4-6.6C55.2,61.5,54.2,60.8,53.5,59.9z M29,54.7    c-1.1,2.1-2.6,3.7-4.5,5c-2,1.2-4.3,1.8-7,1.8h-5.7V33.6h5.7c2.7,0,5,0.6,7,1.8c2,1.2,3.5,2.8,4.5,4.9c1.1,2.1,1.6,4.5,1.6,7.3    C30.6,50.3,30.1,52.7,29,54.7z"></path>		</g>		<g>			<linearGradient id="SVGID_1_" gradientUnits="userSpaceOnUse" x1="18.2639" y1="90.5751" x2="100.6863" y2="8.1526">				<stop offset="0" style="stop-color:#1A2542"></stop>				<stop offset="0.231" style="stop-color:#1A2745"></stop>				<stop offset="0.4165" style="stop-color:#1C2F4F"></stop>				<stop offset="0.5863" style="stop-color:#1E3B60"></stop>				<stop offset="0.7466" style="stop-color:#214C78"></stop>				<stop offset="0.8988" style="stop-color:#266296"></stop>				<stop offset="1" style="stop-color:#2974AF"></stop>			</linearGradient>			<path class="st3" d="M78.2,11l8,1.2l-1.9,6.7l-3,0.8c-0.2,0-0.4,0.2-0.4,0.4l-0.4,1.2c-0.1,0.2,0.1,0.3,0.2,0.3l4.4,0.3    c0.1,0,0.2,0,0.2,0.1l3.7,2.3c0.1,0.1,0.3,0,0.4-0.1l0.4-1.2c0.1-0.2,0-0.4-0.1-0.6l-2-2.4l2.4-6.5l7.2,3.8    c0.1,0.1,0.3,0,0.4-0.1l0.5-1.4c0.2-0.5,0-1-0.4-1.4l-6.1-5l1.8-4.8c0.3-0.9,0.3-1.8,0-2.7l-0.3-0.9c-0.3-0.8-1.2-1.1-1.9-0.6    l-0.8,0.6c-0.7,0.5-1.3,1.3-1.6,2.2l-1.4,5l-7.9,0.4c-0.5,0-1,0.4-1.1,0.9L78,10.6C78,10.8,78.1,11,78.2,11z"></path>							<linearGradient id="SVGID_00000003083486846854837480000005530035391050460818_" gradientUnits="userSpaceOnUse" x1="18.2639" y1="90.5751" x2="100.6863" y2="8.1526">				<stop offset="0" style="stop-color:#1A2542"></stop>				<stop offset="0.231" style="stop-color:#1A2745"></stop>				<stop offset="0.4165" style="stop-color:#1C2F4F"></stop>				<stop offset="0.5863" style="stop-color:#1E3B60"></stop>				<stop offset="0.7466" style="stop-color:#214C78"></stop>				<stop offset="0.8988" style="stop-color:#266296"></stop>				<stop offset="1" style="stop-color:#2974AF"></stop>			</linearGradient>			<path style="fill:url(#SVGID_00000003083486846854837480000005530035391050460818_);" d="M84.7,23.1c-0.4-0.1-0.8,0.2-0.9,0.6    l-0.5,2.7c0,0.1,0,0.3,0.2,0.4c0.2,0.1,0.4,0,0.5-0.1l1.2-2.4c0-0.1,0.1-0.1,0.1-0.2C85.4,23.6,85.1,23.2,84.7,23.1z"></path>							<linearGradient id="SVGID_00000052810512031692877190000016970165852565068705_" gradientUnits="userSpaceOnUse" x1="18.2639" y1="90.5751" x2="100.6863" y2="8.1526">				<stop offset="0" style="stop-color:#1A2542"></stop>				<stop offset="0.231" style="stop-color:#1A2745"></stop>				<stop offset="0.4165" style="stop-color:#1C2F4F"></stop>				<stop offset="0.5863" style="stop-color:#1E3B60"></stop>				<stop offset="0.7466" style="stop-color:#214C78"></stop>				<stop offset="0.8988" style="stop-color:#266296"></stop>				<stop offset="1" style="stop-color:#2974AF"></stop>			</linearGradient>			<path style="fill:url(#SVGID_00000052810512031692877190000016970165852565068705_);" d="M81,23.4l-0.5,2.7c0,0.1,0,0.3,0.2,0.4    c0.2,0.1,0.4,0,0.5-0.1l1.2-2.4c0-0.1,0.1-0.1,0.1-0.2c0.1-0.4-0.2-0.8-0.6-0.9C81.5,22.7,81.1,23,81,23.4z"></path>							<linearGradient id="SVGID_00000080928733054726475180000012235673852328913584_" gradientUnits="userSpaceOnUse" x1="18.2639" y1="90.5751" x2="100.6863" y2="8.1526">				<stop offset="0" style="stop-color:#1A2542"></stop>				<stop offset="0.231" style="stop-color:#1A2745"></stop>				<stop offset="0.4165" style="stop-color:#1C2F4F"></stop>				<stop offset="0.5863" style="stop-color:#1E3B60"></stop>				<stop offset="0.7466" style="stop-color:#214C78"></stop>				<stop offset="0.8988" style="stop-color:#266296"></stop>				<stop offset="1" style="stop-color:#2974AF"></stop>			</linearGradient>			<path style="fill:url(#SVGID_00000080928733054726475180000012235673852328913584_);" d="M86.4,25.1l-0.5,2.7    c0,0.1,0,0.3,0.2,0.4c0.2,0.1,0.4,0,0.5-0.2l1.2-2.4c0-0.1,0.1-0.1,0.1-0.2c0.1-0.4-0.2-0.8-0.6-0.9    C86.8,24.5,86.4,24.7,86.4,25.1z"></path>							<linearGradient id="SVGID_00000004525712569010784590000005534114964657486992_" gradientUnits="userSpaceOnUse" x1="18.2639" y1="90.5751" x2="100.6863" y2="8.1526">				<stop offset="0" style="stop-color:#1A2542"></stop>				<stop offset="0.231" style="stop-color:#1A2745"></stop>				<stop offset="0.4165" style="stop-color:#1C2F4F"></stop>				<stop offset="0.5863" style="stop-color:#1E3B60"></stop>				<stop offset="0.7466" style="stop-color:#214C78"></stop>				<stop offset="0.8988" style="stop-color:#266296"></stop>				<stop offset="1" style="stop-color:#2974AF"></stop>			</linearGradient>			<path style="fill:url(#SVGID_00000004525712569010784590000005534114964657486992_);" d="M101.5,46v7.2l9.9,0.1v0.4    c0,1.6-0.4,3.2-1.3,4.5c-0.8,1.4-2,2.4-3.5,3.2c-1.5,0.8-3.2,1.2-5.1,1.2c-1.9,0-3.6-0.6-5.2-1.8c-1.5-1.2-2.7-3-3.6-5.3    c-0.9-2.3-1.3-5-1.3-8.1c0-3.1,0.4-5.9,1.3-8.1c0.9-2.3,2.1-4,3.6-5.2c1.5-1.2,3.3-1.8,5.2-1.8c2,0,3.7,0.6,5.1,1.8    c1.4,1.2,2.5,2.8,3.3,4.8l12.5-2.3c-1.4-5.2-3.8-9-7.2-11.4c-3.4-2.4-7.7-3.6-13.1-3.6c-2.7,0-5.1,0.4-7.4,1.1    c-4.4,11.4-10.2,20.4-16.1,27.5c0,0.2,0,0.4,0,0.7c-0.1-0.1-0.2-0.2-0.3-0.4c0,0,0,0,0,0c-10.4,12.3-21.3,18.6-27,21.3    c3,1.1,6.2,1.7,9.6,1.7c4.3,0,7.9-0.6,10.9-1.7s5.3-2.8,6.9-5c1.3-1.8,2-4,2.3-6.5c0.1,0.2,0.2,0.4,0.3,0.7    c1.9,3.9,4.5,7,7.8,9.2c3.3,2.2,7,3.3,11.2,3.3c2.9,0,5.4-0.8,7.3-2.4c1.8-1.5,3.1-3.6,4.1-6.2l1.1,7.4h9.7V46H101.5z"></path>							<linearGradient id="SVGID_00000095329387117880266280000007845312977960519597_" gradientUnits="userSpaceOnUse" x1="18.2639" y1="90.5751" x2="100.6863" y2="8.1526">				<stop offset="0" style="stop-color:#1A2542"></stop>				<stop offset="0.231" style="stop-color:#1A2745"></stop>				<stop offset="0.4165" style="stop-color:#1C2F4F"></stop>				<stop offset="0.5863" style="stop-color:#1E3B60"></stop>				<stop offset="0.7466" style="stop-color:#214C78"></stop>				<stop offset="0.8988" style="stop-color:#266296"></stop>				<stop offset="1" style="stop-color:#2974AF"></stop>			</linearGradient>			<path style="fill:url(#SVGID_00000095329387117880266280000007845312977960519597_);" d="M53.5,59.9c-0.8-1-1.1-2.2-1.1-3.7H42.2    c0.8-2.6,1.2-5.4,1.2-8.5c0-1.8-0.1-3.5-0.4-5.1c0.4,0.6,0.8,1.1,1.2,1.6c2,2.1,4.7,3.9,8.3,5.4l10.8,4.7    c0.4,0.2,0.8,0.3,1.2,0.5c2.9-3.2,5.1-6.3,6.9-9.4c-0.4-0.2-0.9-0.4-1.4-0.6l-11.4-4.8c-1.5-0.6-2.5-1.2-3.3-1.8    c-0.7-0.5-1.1-1.3-1.1-2.2c0-1,0.6-1.9,1.7-2.5c1.1-0.7,2.6-1,4.5-1c2.6,0,4.4,0.6,5.6,1.7c1.1,1.1,1.9,2.5,2.2,4.1h6.6    c1.3-3.5,1.9-6.7,2.2-9.2c-0.7-1.1-1.6-2.1-2.6-3c-3.2-2.8-7.8-4.3-13.9-4.3c-5.9,0-10.6,1.3-14,3.9c-3.4,2.6-5.1,5.9-5.1,10.1    c0,0.4,0,0.7,0,1.1c-0.4-0.8-0.8-1.6-1.2-2.4c-2.2-3.7-5.2-6.6-9.1-8.6c-3.9-2-8.4-3-13.5-3H0v49.5h17.5c5.1,0,9.6-1,13.5-3    c3.9-2,6.9-4.9,9.1-8.6c0.3-0.5,0.6-1.1,0.9-1.6c0.5,2.7,1.4,5.1,2.8,7c0.7,0.9,1.4,1.7,2.2,2.5c3.9-2.1,7.4-4.3,10.4-6.6    C55.2,61.5,54.2,60.8,53.5,59.9z M29,54.7c-1.1,2.1-2.6,3.7-4.5,5c-2,1.2-4.3,1.8-7,1.8h-5.7V33.6h5.7c2.7,0,5,0.6,7,1.8    c2,1.2,3.5,2.8,4.5,4.9c1.1,2.1,1.6,4.5,1.6,7.3C30.6,50.3,30.1,52.7,29,54.7z"></path>		</g>	</g></g></svg>